<svg aria-hidden="true" style="position: absolute; width: 0; height: 0; overflow: hidden;" version="1.1" xmlns="http://www.w3.org/2000/svg" xmlns:xlink="http://www.w3.org/1999/xlink">
<defs>
<symbol id="clouse" viewBox="0 0 32 32">
<path stroke-linejoin="round" stroke-linecap="round" stroke-miterlimit="4" stroke-width="2.6667" d="M24 8l-16 16M8 8l16 16"></path>
</symbol>
<symbol id="burger" viewBox="0 0 36 32">
<path d="M0 0h36v4h-36v-4zM12 14h24v4h-24v-4zM0 28h36v4h-36v-4z"></path>
</symbol>
<symbol id="arrow-right" viewBox="0 0 49 32">
<path stroke-linejoin="miter" stroke-linecap="butt" stroke-miterlimit="4" stroke-width="0.5" d="M31.75 16c0 8.698-7.052 15.75-15.75 15.75s-15.75-7.052-15.75-15.75c0-8.698 7.051-15.75 15.75-15.75s15.75 7.051 15.75 15.75z"></path>
<path d="M48.177 16.177c0.045-0.045 0.073-0.108 0.073-0.177s-0.028-0.132-0.073-0.177v0l-1.591-1.591c-0.046-0.047-0.109-0.076-0.18-0.076-0.138 0-0.25 0.112-0.25 0.25 0 0.071 0.029 0.134 0.076 0.18l1.414 1.414-1.414 1.414c-0.045 0.045-0.073 0.108-0.073 0.177 0 0.138 0.112 0.25 0.25 0.25 0.069 0 0.132-0.028 0.177-0.073v0l1.591-1.59zM15 16.25h33v-0.5h-33v0.5z"></path>
</symbol>
<symbol id="arrow-left" viewBox="0 0 49 32">
<path stroke-linejoin="miter" stroke-linecap="butt" stroke-miterlimit="4" stroke-width="0.5" d="M48.25 16c0 8.698-7.051 15.75-15.75 15.75s-15.75-7.052-15.75-15.75c0-8.698 7.052-15.75 15.75-15.75s15.75 7.051 15.75 15.75z"></path>
<path d="M0.323 15.823c-0.045 0.045-0.073 0.108-0.073 0.177s0.028 0.132 0.073 0.177v0l1.591 1.59c0.045 0.045 0.108 0.073 0.177 0.073 0.138 0 0.25-0.112 0.25-0.25 0-0.069-0.028-0.131-0.073-0.177v0l-1.415-1.414 1.415-1.414c0.045-0.045 0.073-0.108 0.073-0.177 0-0.138-0.112-0.25-0.25-0.25-0.069 0-0.132 0.028-0.177 0.073v0l-1.591 1.591zM0.5 16.25h33v-0.5h-33v0.5z"></path>
</symbol>
<symbol id="icon-tel" viewBox="0 0 32 32">
<path d="M26.331 6.267l-3.346-3.344c-0.392-0.394-0.934-0.638-1.534-0.638s-1.142 0.244-1.534 0.638l-0 0-3.606 3.599c-0.394 0.393-0.638 0.936-0.638 1.537s0.244 1.144 0.638 1.537l2.816 2.818c-0.677 1.554-1.592 2.881-2.715 4l-0 0c-1.119 1.125-2.444 2.042-3.916 2.69l-0.082 0.032-2.815-2.819c-0.392-0.394-0.934-0.638-1.534-0.638s-1.142 0.244-1.534 0.638l-0 0-3.608 3.599c-0.394 0.393-0.638 0.936-0.638 1.537s0.244 1.144 0.638 1.537l3.344 3.343c0.697 0.697 1.659 1.097 2.647 1.097 0.205 0 0.402-0.016 0.603-0.050 4.16-0.686 8.29-2.901 11.625-6.232 3.331-3.337 5.544-7.466 6.235-11.63 0.031-0.181 0.049-0.389 0.049-0.602 0-1.034-0.419-1.97-1.096-2.647l0 0zM25.15 9.143c-0.613 3.705-2.606 7.4-5.607 10.401s-6.694 4.994-10.4 5.606c-0.071 0.012-0.152 0.019-0.235 0.019-0.409 0-0.778-0.166-1.046-0.434l-3.285-3.283 3.482-3.486 3.793 3.8 0.679-0.251c4.177-1.566 7.414-4.803 8.945-8.876l0.034-0.104 0.251-0.679-3.797-3.794 3.482-3.483 3.285 3.283c0.339 0.339 0.496 0.817 0.417 1.282z"></path>
</symbol>
<symbol id="instagram" viewBox="0 0 32 32">
<path stroke-linejoin="round" stroke-linecap="round" stroke-miterlimit="4" stroke-width="2.2857" d="M22.667 2.666h-13.334c-3.682 0-6.666 2.985-6.666 6.666 0 0 0 0.001 0 0.001v-0 13.333c0 0 0 0.001 0 0.001 0 3.682 2.985 6.666 6.666 6.666h13.334c3.682 0 6.666-2.985 6.666-6.666 0-0 0-0.001 0-0.001v0-13.333c0-0 0-0.001 0-0.001 0-3.682-2.985-6.666-6.666-6.666-0 0-0.001 0-0.001 0h0z"></path>
<path stroke-linejoin="round" stroke-linecap="round" stroke-miterlimit="4" stroke-width="2.2857" d="M21.334 15.16c0.037 0.235 0.058 0.506 0.058 0.782 0 2.946-2.388 5.334-5.334 5.334-2.67 0-4.882-1.962-5.273-4.522l-0.004-0.030c-0.037-0.235-0.058-0.506-0.058-0.782 0-2.946 2.388-5.334 5.334-5.334 2.67 0 4.882 1.962 5.273 4.522l0.004 0.030zM23.333 8.666h0.014"></path>
</symbol>
<symbol id="facebook" viewBox="0 0 32 32">
<path stroke-linejoin="round" stroke-linecap="round" stroke-miterlimit="4" stroke-width="2.2857" d="M24 2.666h-4c-0 0-0.001 0-0.001 0-3.682 0-6.666 2.985-6.666 6.666 0 0 0 0.001 0 0.001v-0 4h-4v5.333h4v10.667h5.334v-10.667h4l1.334-5.333h-5.334v-4c0-0.737 0.597-1.334 1.334-1.334v0h4v-5.334z"></path>
</symbol>
</defs>
</svg>
